<mxfile host="app.diagrams.net" modified="2023-10-23T11:59:40.957Z" agent="Mozilla/5.0 (Macintosh; Intel Mac OS X 10_15_7) AppleWebKit/537.36 (KHTML, like Gecko) Chrome/117.0.0.0 Safari/537.36" etag="pKVKeAUcCX44sOMX7lsH" version="22.0.6" type="github">
  <diagram id="6a731a19-8d31-9384-78a2-239565b7b9f0" name="Page-1">
    <mxGraphModel dx="1573" dy="1050" grid="1" gridSize="10" guides="1" tooltips="1" connect="1" arrows="1" fold="1" page="1" pageScale="1" pageWidth="1169" pageHeight="827" background="none" math="0" shadow="0">
      <root>
        <mxCell id="0" />
        <mxCell id="1" parent="0" />
        <mxCell id="2" value="开始" style="shape=mxgraph.flowchart.terminator;strokeWidth=2;gradientDirection=north;fontStyle=0;html=1;labelBackgroundColor=none;fillColor=#e1d5e7;strokeColor=#9673a6;fontSize=16;flipH=0;flipV=0;" parent="1" vertex="1">
          <mxGeometry x="260" y="60" width="120" height="50" as="geometry" />
        </mxCell>
        <mxCell id="3" value="梳理可服用模块" style="shape=mxgraph.flowchart.data;strokeWidth=2;gradientDirection=north;fontStyle=0;html=1;labelBackgroundColor=none;fillColor=#FAE5C7;strokeColor=#0F8B8D;fontColor=#143642;fontSize=16;flipH=0;flipV=0;" parent="1" vertex="1">
          <mxGeometry x="240.5" y="151" width="159" height="80" as="geometry" />
        </mxCell>
        <mxCell id="4" value="发布组件" style="shape=mxgraph.flowchart.data;strokeWidth=2;gradientDirection=north;fontStyle=0;html=1;labelBackgroundColor=none;fillColor=#FAE5C7;strokeColor=#0F8B8D;fontColor=#143642;fontSize=16;flipH=0;flipV=0;" parent="1" vertex="1">
          <mxGeometry x="241" y="531" width="159" height="80" as="geometry" />
        </mxCell>
        <mxCell id="5" value="在lego 中创建组件" style="shape=mxgraph.flowchart.data;strokeWidth=2;gradientDirection=north;fontStyle=0;html=1;labelBackgroundColor=none;fillColor=#FAE5C7;strokeColor=#0F8B8D;fontColor=#143642;fontSize=16;flipH=0;flipV=0;" parent="1" vertex="1">
          <mxGeometry x="241" y="278" width="159" height="80" as="geometry" />
        </mxCell>
        <mxCell id="6" value="是否通过组件测试" style="shape=mxgraph.flowchart.decision;strokeWidth=2;gradientDirection=north;fontStyle=0;html=1;labelBackgroundColor=none;fillColor=#dae8fc;strokeColor=#6c8ebf;fontSize=16;flipH=0;flipV=0;" parent="1" vertex="1">
          <mxGeometry x="246" y="416" width="149" height="57" as="geometry" />
        </mxCell>
        <mxCell id="7" style="fontStyle=1;strokeColor=#A8201A;strokeWidth=1;html=1;labelBackgroundColor=none;fontColor=default;fontSize=16;" parent="1" source="2" target="3" edge="1">
          <mxGeometry relative="1" as="geometry" />
        </mxCell>
        <mxCell id="8" style="fontStyle=1;strokeColor=#A8201A;strokeWidth=1;html=1;labelBackgroundColor=none;fontColor=default;fontSize=16;" parent="1" source="3" target="5" edge="1">
          <mxGeometry relative="1" as="geometry" />
        </mxCell>
        <mxCell id="9" style="entryX=0.5;entryY=0;entryPerimeter=0;fontStyle=1;strokeColor=#A8201A;strokeWidth=1;html=1;labelBackgroundColor=none;fontColor=default;fontSize=16;" parent="1" source="5" target="6" edge="1">
          <mxGeometry relative="1" as="geometry" />
        </mxCell>
        <mxCell id="10" value="" style="edgeStyle=elbowEdgeStyle;elbow=horizontal;entryX=0.5;entryY=0.91;entryPerimeter=0;exitX=1;exitY=0.5;exitPerimeter=0;fontStyle=1;strokeColor=#A8201A;strokeWidth=1;html=1;labelBackgroundColor=none;fontColor=default;fontSize=16;" parent="1" source="6" target="51" edge="1">
          <mxGeometry x="381" y="28.5" width="100" height="100" as="geometry">
            <mxPoint x="750" y="447" as="sourcePoint" />
            <mxPoint x="765.395" y="318.5" as="targetPoint" />
            <Array as="points">
              <mxPoint x="545" y="400" />
            </Array>
          </mxGeometry>
        </mxCell>
        <mxCell id="11" value="no" style="text;fontStyle=0;html=1;strokeColor=none;fillColor=none;strokeWidth=2;labelBackgroundColor=none;fontColor=#143642;fontSize=16;" parent="1" vertex="1">
          <mxGeometry x="410" y="414" width="40" height="26" as="geometry" />
        </mxCell>
        <mxCell id="12" value="" style="edgeStyle=elbowEdgeStyle;elbow=horizontal;fontColor=default;fontStyle=1;strokeColor=#A8201A;strokeWidth=1;html=1;labelBackgroundColor=none;fontSize=16;" parent="1" source="6" target="4" edge="1">
          <mxGeometry width="100" height="100" as="geometry">
            <mxPoint y="100" as="sourcePoint" />
            <mxPoint x="100" as="targetPoint" />
          </mxGeometry>
        </mxCell>
        <mxCell id="13" value="在项目中接入组件" style="shape=mxgraph.flowchart.data;strokeWidth=2;gradientDirection=north;fontStyle=0;html=1;labelBackgroundColor=none;fillColor=#FAE5C7;strokeColor=#0F8B8D;fontColor=#143642;fontSize=16;flipH=0;flipV=0;" parent="1" vertex="1">
          <mxGeometry x="241" y="657" width="159" height="80" as="geometry" />
        </mxCell>
        <mxCell id="14" value="yes" style="text;fontStyle=0;html=1;strokeColor=none;fillColor=none;strokeWidth=2;align=center;labelBackgroundColor=none;fontColor=#143642;fontSize=16;flipH=0;flipV=0;" parent="1" vertex="1">
          <mxGeometry x="320" y="480" width="40" height="26" as="geometry" />
        </mxCell>
        <mxCell id="17" value="" style="edgeStyle=elbowEdgeStyle;elbow=horizontal;fontStyle=1;strokeColor=#A8201A;strokeWidth=1;html=1;labelBackgroundColor=none;fontColor=default;fontSize=16;" parent="1" source="4" target="13" edge="1">
          <mxGeometry width="100" height="100" as="geometry">
            <mxPoint y="100" as="sourcePoint" />
            <mxPoint x="100" as="targetPoint" />
          </mxGeometry>
        </mxCell>
        <mxCell id="51" value="修复组件" style="shape=mxgraph.flowchart.paper_tape;strokeWidth=2;gradientDirection=north;fontStyle=0;html=1;labelBackgroundColor=none;fillColor=#FAE5C7;strokeColor=#0F8B8D;fontColor=#143642;fontSize=16;" parent="1" vertex="1">
          <mxGeometry x="470" y="335" width="150" height="81" as="geometry" />
        </mxCell>
        <mxCell id="52" value="" style="edgeStyle=elbowEdgeStyle;elbow=horizontal;exitX=0.5;exitY=0.09;exitPerimeter=0;entryX=0.905;entryY=0.5;entryPerimeter=0;fontStyle=1;strokeColor=#A8201A;strokeWidth=1;html=1;labelBackgroundColor=none;fontColor=default;fontSize=16;" parent="1" source="51" target="5" edge="1">
          <mxGeometry width="100" height="100" as="geometry">
            <mxPoint y="100" as="sourcePoint" />
            <mxPoint x="100" as="targetPoint" />
            <Array as="points">
              <mxPoint x="545" y="300" />
            </Array>
          </mxGeometry>
        </mxCell>
        <mxCell id="6DdJl3sZ2P3u8hhdBNDI-55" value="结束" style="shape=mxgraph.flowchart.terminator;strokeWidth=2;gradientDirection=north;fontStyle=0;html=1;labelBackgroundColor=none;fillColor=#e1d5e7;strokeColor=#9673a6;fontSize=16;flipH=0;flipV=0;" vertex="1" parent="1">
          <mxGeometry x="260.5" y="910" width="120" height="60" as="geometry" />
        </mxCell>
        <mxCell id="6DdJl3sZ2P3u8hhdBNDI-58" value="发布项目" style="shape=mxgraph.flowchart.data;strokeWidth=2;gradientDirection=north;fontStyle=0;html=1;labelBackgroundColor=none;fillColor=#FAE5C7;strokeColor=#0F8B8D;fontColor=#143642;fontSize=16;flipH=0;flipV=0;" vertex="1" parent="1">
          <mxGeometry x="241" y="784" width="159" height="80" as="geometry" />
        </mxCell>
        <mxCell id="6DdJl3sZ2P3u8hhdBNDI-59" style="edgeStyle=orthogonalEdgeStyle;rounded=0;orthogonalLoop=1;jettySize=auto;html=1;entryX=0.5;entryY=0;entryDx=0;entryDy=0;entryPerimeter=0;strokeColor=#A8201A;fontColor=#143642;fillColor=#FAE5C7;fontSize=16;exitX=0.5;exitY=1;exitDx=0;exitDy=0;exitPerimeter=0;" edge="1" parent="1" source="13" target="6DdJl3sZ2P3u8hhdBNDI-58">
          <mxGeometry relative="1" as="geometry">
            <mxPoint x="320" y="740" as="sourcePoint" />
          </mxGeometry>
        </mxCell>
        <mxCell id="6DdJl3sZ2P3u8hhdBNDI-60" style="edgeStyle=orthogonalEdgeStyle;rounded=0;orthogonalLoop=1;jettySize=auto;html=1;entryX=0.5;entryY=0;entryDx=0;entryDy=0;entryPerimeter=0;strokeColor=#A8201A;fontColor=#143642;fillColor=#FAE5C7;fontSize=16;" edge="1" parent="1" source="6DdJl3sZ2P3u8hhdBNDI-58" target="6DdJl3sZ2P3u8hhdBNDI-55">
          <mxGeometry relative="1" as="geometry" />
        </mxCell>
      </root>
    </mxGraphModel>
  </diagram>
</mxfile>
